<svg width="92" height="20" viewBox="0 0 92 20" fill="none" xmlns="http://www.w3.org/2000/svg">
<path fill-rule="evenodd" clip-rule="evenodd" d="M47.5474 0H44.667V18.4972C45.9768 18.9449 47.6065 19.3085 49.4691 19.3085C54.2412 19.3085 57.0056 16.6221 57.0056 12.6208C57.0056 8.6468 54.2118 6.35253 50.4865 6.35253C49.3521 6.35253 48.1585 6.66045 47.5474 6.96836V0ZM26.994 1.11944C26.0342 1.11944 25.1894 1.87498 25.1894 2.82617C25.1894 3.80586 26.0342 4.5899 26.994 4.5899C27.9547 4.5899 28.7987 3.80586 28.7987 2.82617C28.7987 1.87498 27.9547 1.11944 26.994 1.11944ZM9.167 16.5127C8.53895 16.7496 7.87682 16.8744 7.15961 16.8744C4.65633 16.8744 2.90973 15.3072 2.90973 12.8447C2.90973 10.2423 4.71437 8.81497 7.04261 8.81497C7.72689 8.81497 8.39122 8.92806 9.03681 9.17669C9.34953 8.4409 9.76105 7.7725 10.2599 7.18346C9.19003 6.63355 8.1281 6.35245 6.78136 6.35245C2.99732 6.35245 0 8.84239 0 12.8447C0 16.8187 2.85182 19.3086 6.78136 19.3086C8.10286 19.3086 9.31499 19.0418 10.4716 18.4434C9.94693 17.8762 9.50757 17.2291 9.167 16.5127ZM17.0702 6.35245C20.9406 6.35245 23.7346 8.98315 23.7346 12.8447C23.7346 16.6788 20.9406 19.3086 17.0702 19.3086C13.2292 19.3086 10.4354 16.6788 10.4354 12.8447C10.4354 8.98315 13.2292 6.35245 17.0702 6.35245ZM13.345 12.8447C13.345 10.3265 14.9167 8.73098 17.0701 8.73098C19.2825 8.73098 20.8249 10.3265 20.8249 12.8447C20.8249 15.3357 19.2825 16.9301 17.0701 16.9301C14.9167 16.9301 13.345 15.3357 13.345 12.8447ZM25.5685 19.0289H28.4489V6.632H25.5685V19.0289ZM30.9623 7.41613C32.7669 6.74457 34.9794 6.35243 36.8701 6.35243C40.1592 6.35243 42.2546 7.55586 42.2546 11.0537V19.029H39.4029V11.3059C39.4029 9.51498 38.2386 8.87065 36.6376 8.87065C35.6187 8.87065 34.6012 9.01057 33.8437 9.23449V19.029H30.9623V7.41613ZM47.5474 16.6789C48.1005 16.846 48.8286 16.93 49.5552 16.93C52.2037 16.93 54.096 15.5312 54.096 12.6766C54.096 10.2696 52.3207 8.84246 50.138 8.84246C49.0033 8.84246 48.13 9.12295 47.5474 9.43086V16.6789ZM62.8547 8.75937C64.2799 8.75937 65.3283 9.37415 65.3283 10.7175V11.7537H63.9019C60.1767 11.7537 57.936 12.9845 57.936 15.5028C57.936 18.3017 60.3811 19.2812 63.728 19.2812C65.1829 19.2812 66.9284 19.0847 68.1503 18.7768V10.5775C68.1503 7.4718 66.1425 6.35238 63.3203 6.35238C61.719 6.35238 60.2641 6.74451 59.1296 7.3593V9.76631C60.2062 9.17875 61.3702 8.75937 62.8547 8.75937ZM65.3283 13.6004H64.1062C62.0972 13.6004 60.7878 14.1594 60.7878 15.4188C60.7878 16.7062 62.0108 17.2097 63.7566 17.2097C64.1938 17.2097 64.8048 17.154 65.3283 17.0698V13.6004ZM74.1744 17.07C72.8652 17.07 71.4395 16.5381 70.246 15.671V18.3016C71.2065 18.9174 72.7199 19.3086 74.2334 19.3086C77.0272 19.3086 79.0935 18.1335 79.0935 15.5312C79.0935 13.2925 77.813 12.2287 74.8732 11.6129C73.3886 11.2219 72.8364 10.8014 72.8364 9.99016C72.8364 9.17869 73.5058 8.59112 74.7575 8.59112C76.1249 8.59112 77.2307 9.06727 78.3653 9.85024V7.30375C77.2889 6.66045 76.1243 6.35256 74.6698 6.35256C72.0506 6.35256 70.0713 7.58315 70.0713 10.1025C70.0713 12.2573 71.2065 13.2925 73.8839 13.88C75.5426 14.2993 76.2996 14.663 76.2996 15.671C76.2996 16.6504 75.4556 17.07 74.1744 17.07ZM83.0367 13.4606V13.5163C83.2114 15.7266 85.19 16.93 87.1974 16.93C88.9732 16.93 90.2537 16.538 91.5341 15.7266V18.1619C90.3695 18.9449 88.6526 19.3085 86.9946 19.3085C82.9785 19.3085 80.2428 16.846 80.2428 12.9287C80.2428 8.98322 82.9195 6.35251 86.4711 6.35251C90.2242 6.35251 92 8.67531 92 12.0607V13.4606H83.0367ZM86.3835 8.67531C88.2463 8.67531 89.2349 9.73793 89.2931 11.6696H83.1237C83.5019 9.79469 84.7241 8.67531 86.3835 8.67531Z" fill="#1652F0"/>
</svg>
