<svg height="35" viewBox="0 0 5669.29 1133.86" width="142" xml:space="preserve" class="css-mqr66u-RobinhoodLogotype"><path d="M5163.82,879.72l-7.27,2.44c-47.01,15.62-116.52,39.67-178.92,68.35c-3.34,1.57-5.54,5.95-5.54,5.95 c-1.16,2.67-2.6,5.98-4.24,9.72l-0.24,0.48c-6.99,15.91-16.63,39.85-20.76,49.59l-3.21,7.67c-0.5,1.22-0.21,2.62,0.76, 3.54 c0.58,0.55,1.28,0.86,2.14,0.89c0.44,0,0.95-0.09,1.41-0.33l7.54-3.58c17.07-8.12,38.69-20.44,61.35-31.21l0.79-0.37 c43.09-20.44,91.74-43.52,121.04-57.48c0-0.02,4.7-2.53,7.08-7.24l21.93-43.98c0.58-1.15,0.4-2.54-0.4-3.52 C5166.39,879.68,5165.04,879.32,5163.82,879.72z"></path><path d="M4988.61,811.55c3.05-6.01,17.31-33.37,20.52-39.49l0.58-1.05c95.18-179.55,211.18-348.89, 344.71-503.33l3.69-4.26 c1.13-1.34,1.34-3.25,0.52-4.8c-0.88-1.56-2.63-2.41-4.33-2.18l-5.59,0.76c-87.64,12.07-176.31,28.79-263.67,49.67 c-8.66,2.42-14.26,8.07-15.48,9.38c-65.38,78.3-127.3,160.73-184.1,245.18c-2.84,4.27-3.15,14.47-3.15,14.47 s14.31,109.97,35.15,191.01c-51.64,148.51-97.74,344.23-97.74,344.23c-0.37,1.27-0.12,2.63,0.64,3.7 c0.78,1.07,2.02,1.69,3.36,1.73h29.38c1.86,0.03,3.5-1.08,4.15-2.79l2-5.5c30-81.83,64.23-162.65,102.03-241.38 C4970.08,848.56,4988.61,811.55,4988.61,811.55z"></path><path d="M5397.54,299.78l-0.06-5.6c-0.06-1.76-1.16-3.34-2.78-3.93c-1.65-0.62-3.54-0.15-4.67,1.2l-3.66,4.24 c-155.7,180.07-286.56,379.94-388.96,594.04l-2.38,5c-0.78,1.58-0.46,3.49,0.72,4.76c0.81,0.84,1.88,1.3,3.04,1.31 c0.52,0.02,1.15-0.09,1.68-0.31l5.13-2.13c87.45-36.23,176.77-67.62,265.5-93.26c5.31-1.54,9.8-5.25,12.31-10.16 c38.9-75.81,129.2-222.57,129.2-222.57c2.32-3.31,1.74-8.21,1.74-8.21S5398.52,388.61,5397.54,299.78z"></path><path d="M5598.86,46.61c-22.11-19.17-54.17-28.18-104-29.25c-45.19-0.97-98.93,8.76-159.79,28.83 c-9.13,3.2-16.37,8.25-22.87,14.65c-61.9,58.11-122.08,119.75-179,183.44l-4.38,4.85c-1.21,1.37-1.39,3.37-0.5,4.95 c0.92,1.6,2.78,2.42,4.58,2.02l6.38-1.35c91.73-19.61,184.34-34.6,275.18-44.54c5.98-0.66,12.15,1.34,16.61,5.41 c4.46,4.11,7.02,9.96,6.9,16.05c-1.5,90.16,1.77,180.77,9.8,269.34l0.52,5.78c0.18,1.77,1.4,3.24,3.18,3.71 c0.3,0.09,0.61,0.15,1.01,0.16c1.34,0.02,2.75-0.63,3.57-1.81l3.33-4.75c51.18-73.03,106.9-144.02, 165.47-211.16l-0.03-0.02 c6.56-7.47,8.3-12.2,9.53-18.98C5652.79,155.92,5624.32,68.69,5598.86,46.61z"></path><path d="M1385.06,309.47c-53,0-109,26-144,66h-2v-251h-97v730h89v-51h2c34,39,96,66,150,66c140,0,230-110,230-280 C1613.06,424.47,1519.06,309.47,1385.06,309.47z M1368.06,781.47c-73,0-129-50-129-116v-142c0-71,56-125,129-125 c95,0,148,69,148,191C1516.06,712.47,1463.06,781.47,1368.06,781.47z"></path><path d="M827.06,309.47c-144,0-243,115-243,280c0,169,96,280,243,280c145,0,240-111,240-280 C1067.06,424.47,969.06,309.47,827.06,309.47z M827.06,781.47c-91,0-147-74-147-192s56-191,147-191c88,0,144,75,144,191 C971.06,706.47,915.06,781.47,827.06,781.47z"></path><path d="M539.06,357.47c0-124-92-203-236-203h-274v700h100v-277h143c110,0,150,44,150,166v111h97v-111 c0-111.74-34.05-178.08-108.09-205.39C486.87,511.49,539.06,448.89,539.06,357.47z M295.06,488.47h-166v-243h165 c95,0,144,41,144,122C438.06,445.47,388.06,488.47,295.06,488.47z"></path><path d="M2142.06,309.47c-56,0-116,27-145,66h-2v-51h-95v530h97v-333c0-75,49-122,126-122c76,0,112,44,112, 136v319h98v-347 C2333.06,385.47,2259.06,309.47,2142.06,309.47z"></path><path d="M3724.06,309.47c-144,0-243,115-243,280c0,169,96,280,243,280c145,0,240-111,240-280 C3964.06,424.47,3866.06,309.47,3724.06,309.47z M3724.06,781.47c-91,0-147-74-147-192s56-191,147-191c88,0,144,75,144, 191 C3868.06,706.47,3812.06,781.47,3724.06,781.47z"></path><path d="M4398.06,124.47v251h-2c-35-41-90-66-143-66c-134,0-229,117-229,280c0,170,90,280,230,280c54,0,116-27, 150-66h2v51h89 v-730H4398.06z M4398.06,665.47c0,66-56,116-129,116c-95,0-148-69-148-192c0-122,53-191,148-191c73,0,129,54,129, 125V665.47z"></path><path d="M3181.06,309.47c-144,0-243,115-243,280c0,169,96,280,243,280c145,0,240-111,240-280 C3421.06,424.47,3323.06,309.47,3181.06,309.47z M3181.06,781.47c-91,0-147-74-147-192s56-191,147-191c88,0,144,75,144, 191 C3325.06,706.47,3269.06,781.47,3181.06,781.47z"></path><rect height="103" width="105" x="1689.06" y="124.47"></rect><path d="M2679.06,309.47c-59,0-119,28-147,68h-2v-253h-97v730h97v-333c0-72,52-122,126-122c73,0,115,48,115, 131v324h97v-348 C2868.06,385.47,2795.06,309.47,2679.06,309.47z"></path><rect height="530" width="97" x="1693.06" y="324.47"></rect></svg>