<svg width="142" height="35" viewBox="0 0 142 35" fill="none" xmlns="http://www.w3.org/2000/svg">
<path d="M129.339 25.3345L129.157 25.3956C127.98 25.7869 126.239 26.3893 124.676 27.1076C124.592 27.1469 124.537 27.2566 124.537 27.2566C124.508 27.3235 124.472 27.4064 124.431 27.5001L124.425 27.5121C124.25 27.9106 124.008 28.5103 123.905 28.7542L123.824 28.9463C123.812 28.9769 123.819 29.012 123.844 29.035C123.858 29.0488 123.876 29.0565 123.897 29.0573C123.908 29.0573 123.921 29.055 123.932 29.049L124.121 28.9594C124.549 28.756 125.09 28.4474 125.658 28.1776L125.678 28.1684C126.757 27.6564 127.976 27.0783 128.709 26.7287C128.709 26.7281 128.827 26.6653 128.887 26.5473L129.436 25.4457C129.451 25.4169 129.446 25.3821 129.426 25.3576C129.404 25.3335 129.37 25.3245 129.339 25.3345Z" fill="black"/>
<path d="M124.951 23.6271C125.027 23.4765 125.384 22.7912 125.465 22.6379L125.479 22.6116C127.863 18.1144 130.769 13.8729 134.113 10.0046L134.206 9.89791C134.234 9.86435 134.239 9.81651 134.219 9.77769C134.197 9.73861 134.153 9.71732 134.11 9.72308L133.97 9.74212C131.775 10.0444 129.554 10.4632 127.366 10.9862C127.149 11.0468 127.009 11.1883 126.978 11.2212C125.341 13.1824 123.79 15.247 122.367 17.3622C122.296 17.4692 122.288 17.7247 122.288 17.7247C122.288 17.7247 122.647 20.4791 123.169 22.5089C121.875 26.2287 120.721 31.1309 120.721 31.1309C120.711 31.1628 120.718 31.1968 120.737 31.2236C120.756 31.2504 120.787 31.266 120.821 31.267H121.557C121.603 31.2677 121.644 31.2399 121.661 31.1971L121.711 31.0593C122.462 29.0097 123.32 26.9854 124.266 25.0134C124.487 24.554 124.951 23.6271 124.951 23.6271Z" fill="black"/>
<path d="M135.193 10.8086L135.192 10.6684C135.19 10.6243 135.163 10.5847 135.122 10.5699C135.081 10.5544 135.034 10.5662 135.005 10.6L134.914 10.7062C131.014 15.2164 127.736 20.2226 125.171 25.5852L125.112 25.7105C125.092 25.7501 125.1 25.7979 125.13 25.8297C125.15 25.8507 125.177 25.8623 125.206 25.8625C125.219 25.863 125.235 25.8603 125.248 25.8548L125.376 25.8014C127.567 24.8939 129.804 24.1077 132.026 23.4655C132.159 23.4269 132.272 23.334 132.335 23.211C133.309 21.3122 135.571 17.6363 135.571 17.6363C135.629 17.5534 135.614 17.4306 135.614 17.4306C135.614 17.4306 135.218 13.0336 135.193 10.8086Z" fill="black"/>
<path d="M140.236 4.46743C139.682 3.98727 138.879 3.7616 137.631 3.7348C136.499 3.7105 135.153 3.95421 133.629 4.45691C133.4 4.53706 133.219 4.66355 133.056 4.82385C131.505 6.27934 129.998 7.82325 128.572 9.41851L128.463 9.53999C128.432 9.57431 128.428 9.6244 128.45 9.66398C128.473 9.70405 128.52 9.72459 128.565 9.71457L128.725 9.68076C131.022 9.18958 133.342 8.81412 135.617 8.56515C135.767 8.54862 135.922 8.59872 136.033 8.70066C136.145 8.8036 136.209 8.95013 136.206 9.10267C136.169 11.3609 136.25 13.6305 136.452 15.8489L136.465 15.9937C136.469 16.038 136.5 16.0748 136.544 16.0866C136.552 16.0888 136.559 16.0903 136.57 16.0906C136.603 16.0911 136.638 16.0748 136.659 16.0453L136.742 15.9263C138.024 14.0971 139.42 12.319 140.887 10.6373L140.886 10.6368C141.05 10.4497 141.094 10.3312 141.125 10.1614C141.587 7.20534 140.874 5.02047 140.236 4.46743Z" fill="black"/>
<path d="M34.6919 11.0513C33.3644 11.0513 31.9618 11.7026 31.0851 12.7045H31.035V6.4176H28.6054V24.7021H30.8346V23.4247H30.8847C31.7363 24.4015 33.2893 25.0778 34.6418 25.0778C38.1484 25.0778 40.4027 22.3226 40.4027 18.0646C40.4027 13.9318 38.0482 11.0513 34.6919 11.0513ZM34.2661 22.8736C32.4377 22.8736 31.035 21.6213 31.035 19.9682V16.4114C31.035 14.6331 32.4377 13.2805 34.2661 13.2805C36.6456 13.2805 37.9731 15.0088 37.9731 18.0646C37.9731 21.1454 36.6456 22.8736 34.2661 22.8736Z" fill="black"/>
<path d="M20.7156 11.0513C17.1088 11.0513 14.6291 13.9318 14.6291 18.0646C14.6291 22.2975 17.0336 25.0778 20.7156 25.0778C24.3474 25.0778 26.7269 22.2975 26.7269 18.0646C26.7269 13.9318 24.2723 11.0513 20.7156 11.0513ZM20.7156 22.8736C18.4363 22.8736 17.0336 21.0201 17.0336 18.0646C17.0336 15.109 18.4363 13.2805 20.7156 13.2805C22.9197 13.2805 24.3224 15.1591 24.3224 18.0646C24.3224 20.9951 22.9197 22.8736 20.7156 22.8736Z" fill="black"/>
<path d="M13.502 12.2536C13.502 9.14775 11.1976 7.16902 7.59082 7.16902H0.727875V24.7021H3.2326V17.764H6.81435C9.56955 17.764 10.5714 18.8661 10.5714 21.9218V24.7021H13.001V21.9218C13.001 19.1231 12.1482 17.4614 10.2937 16.7774C12.1947 16.1114 13.502 14.5434 13.502 12.2536ZM7.39044 15.5348H3.2326V9.44832H7.36539C9.74488 9.44832 10.9722 10.4753 10.9722 12.5041C10.9722 14.4578 9.71983 15.5348 7.39044 15.5348Z" fill="black"/>
<path d="M53.6527 11.0513C52.25 11.0513 50.7472 11.7276 50.0208 12.7045H49.9707V11.4271H47.5912V24.7021H50.0208V16.3614C50.0208 14.4828 51.2481 13.3056 53.1768 13.3056C55.0804 13.3056 55.9821 14.4077 55.9821 16.712V24.7021H58.4367V16.0107C58.4367 12.9549 56.5832 11.0513 53.6527 11.0513Z" fill="black"/>
<path d="M93.2774 11.0513C89.6706 11.0513 87.1909 13.9318 87.1909 18.0646C87.1909 22.2975 89.5954 25.0778 93.2774 25.0778C96.9092 25.0778 99.2887 22.2975 99.2887 18.0646C99.2887 13.9318 96.8341 11.0513 93.2774 11.0513ZM93.2774 22.8736C90.9981 22.8736 89.5954 21.0201 89.5954 18.0646C89.5954 15.109 90.9981 13.2805 93.2774 13.2805C95.4815 13.2805 96.8842 15.1591 96.8842 18.0646C96.8842 20.9951 95.4815 22.8736 93.2774 22.8736Z" fill="black"/>
<path d="M110.159 6.4176V12.7045H110.109C109.232 11.6775 107.855 11.0513 106.527 11.0513C103.171 11.0513 100.792 13.9819 100.792 18.0646C100.792 22.3226 103.046 25.0778 106.552 25.0778C107.905 25.0778 109.458 24.4015 110.309 23.4247H110.36V24.7021H112.589V6.4176H110.159ZM110.159 19.9682C110.159 21.6213 108.757 22.8736 106.928 22.8736C104.549 22.8736 103.221 21.1454 103.221 18.0646C103.221 15.0088 104.549 13.2805 106.928 13.2805C108.757 13.2805 110.159 14.6331 110.159 16.4114V19.9682Z" fill="black"/>
<path d="M79.6767 11.0513C76.0699 11.0513 73.5903 13.9318 73.5903 18.0646C73.5903 22.2975 75.9948 25.0778 79.6767 25.0778C83.3086 25.0778 85.6881 22.2975 85.6881 18.0646C85.6881 13.9318 83.2335 11.0513 79.6767 11.0513ZM79.6767 22.8736C77.3974 22.8736 75.9948 21.0201 75.9948 18.0646C75.9948 15.109 77.3974 13.2805 79.6767 13.2805C81.8809 13.2805 83.2835 15.1591 83.2835 18.0646C83.2835 20.9951 81.8809 22.8736 79.6767 22.8736Z" fill="black"/>
<path d="M44.9362 6.4176H42.3063V8.99747H44.9362V6.4176Z" fill="black"/>
<path d="M67.103 11.0513C65.6252 11.0513 64.1224 11.7527 63.4211 12.7546H63.371V6.4176H60.9414V24.7021H63.371V16.3614C63.371 14.558 64.6734 13.3056 66.5269 13.3056C68.3554 13.3056 69.4074 14.5079 69.4074 16.5868V24.7021H71.837V15.9856C71.837 12.9549 70.0085 11.0513 67.103 11.0513Z" fill="black"/>
<path d="M44.836 11.427H42.4065V24.7021H44.836V11.427Z" fill="black"/>
</svg>
